<svg xmlns="http://www.w3.org/2000/svg" viewBox="0 0 1024 256">
  <path fill="#808080" d="M148.02 61.74q.2 1.34.2 2.48V74.3l-1.15 98.86v1.9q0 1.15-.57 3.44-.19.95-.57 2.09-.38.95-.76 2.1-.95 2.28-2.67 3.42-1.52 1.53-4.95 2.1-5.33 1.14-9.72-.95-2.47-1.53-3.42-3.81-.39-.38-.77-1.15 0-.38-.38-1.14-.38-.95-.57-1.9l-.38-2.29q0-.95-.19-1.9 0-.96-.2-1.9-.37-.96-.37-1.53v-1.72q.38-.76.38-2.85l.19-15.05.19-24h-10.29l-38.66.19-.38 44.95v1.9q0 1.15-.57 3.44-.2.95-.58 2.09-.38.95-.76 2.1-.95 2.28-2.67 3.42-1.52 1.53-4.95 2.1-5.33 1.14-9.71-.95-1.9-1.15-3.62-3.81-.38-.76-.38-1.15l-.57-1.14q-.38-.95-.57-1.9l-.39-2.29q0-.95-.19-1.9l-.38-1.9q-.19-1.53 0-3.25v-2.85l.2-15.05.37-28q.2-6.1.2-12.57V98.12q-.2-6.85-.2-12.19.2-5.33.58-12v-.76q.19-1.9.19-3.8 0-2.1.19-4.2.19-1.9.57-3.62.57-1.9 1.52-3.8.57-1.53 1.53-2.48.95-1.15 2.28-2.1 3.05-1.52 6.1-1.52 1.52 0 2.66.19 1.15 0 2.29.19 2.28.19 4.38 2.28 1.52 1.34 2.1 3.05.95 2.48 1.14 4.38.19 1.34.19 2.48V74.3l-.38 31.43h3.43q2.1 0 4.76-.19 9.9 0 19.62.2 9.9.18 20.76.18h.19V89.55q.2-7.8.57-16.38v-3.8l.38-4.2q.2-1.9.57-3.62.58-1.9 1.53-3.8.38-1.53 1.33-2.48 1.14-1.15 2.67-2.1 2.66-1.52 5.9-1.52 1.53 0 2.67.19 1.33 0 2.29.19 2.66.38 4.38 2.28 1.52.96 2.1 3.05.37 1.14.56 2.29.38.95.76 2.1zm102.86 40.57q1.72 2.67 1.53 5.72 0 4.38-1.53 7.62-.38.95-1.14 2.47-.57 1.53-1.33 3.24-.57 1.72-1.34 3.24l-1.14 2.29-.38.95q-2.67 5.9-5.14 11.43-2.48 5.52-5.53 11.8-3.04 6.1-5.9 12-2.67 5.72-5.34 11.24-.76 1.53-1.33 3.05-.57 1.34-1.52 2.86l-9.15 19.62q-2.47 4.95-4.76 9.71-2.1 4.77-4.76 9.53-.57.95-1.14 1.71l-.76 1.9q-1.34 2.3-4 4.39-2.48 2.28-5.34 2.47-5.14.38-8.95-3.04-2.29-1.34-3.62-3.81-.76-1.72-.76-4.38.19-1.15.19-2.3l.38-1.9q.38-.95.57-1.9.2-.95.57-1.52.57-1.53.96-1.53l13.9-30.1-1.9-4.18q-.96-2.29-1.72-4-2.47-5.9-5.33-12.39-2.67-6.66-5.53-13.14-2.85-6.66-5.9-12.95-3.05-6.29-6.1-12-1.14-1.9-2.1-4-.94-2.29-1.52-4.38-.57-2.29-.38-4.57.2-2.29 1.72-4.57 1.52-2.86 4-4 2.47-1.34 5.14-1.15 2.86 0 5.33 1.15 2.48 1.14 4 3.04 3.24 3.43 5.15 7.62 1.9 4.2 3.62 8.57 3.62 7.62 7.43 16 3.8 8.38 7.61 16.38l9.9-20.95q1.53-3.05 2.68-5.9 1.33-2.86 2.66-5.53 1.53-3.23 2.86-6.66 1.52-3.43 3.43-6.29.38-.76.76-1.33.38-.57.76-1.34 1.72-2.28 3.05-3.61.95-.77 1.52-1.15.77-.57 1.72-.76 1.33-.38 2.47-.38 1.34-.2 2.48 0 1.9.57 4.57 1.71 2.86 1.15 4.38 4zm58.67 51.43q-3.62-2.28-8.19-3.62-4.38-1.33-9.14-2.47-4.57-1.15-8.96-2.48-4.38-1.52-8-4.19-7.8-5.9-9.14-14.48-1.14-8.76 3.81-17.52 2.67-4.57 7.05-7.43 4.38-3.05 9.52-4.57 5.34-1.71 10.86-1.9 5.52-.2 10.48.57 3.23.57 6.85 1.71 3.62.95 6.67 2.67 3.24 1.71 5.71 4.38 2.67 2.48 3.81 6.28.77 2.48.2 4.77-.39 2.28-1.91 3.8-1.33 1.53-3.62 2.3-2.1.75-4.57.37-2.86-.57-5.33-1.71-2.48-1.14-4.96-2.48-2.47-1.33-5.14-2.28-2.48-.96-5.33-.96-4.38-.19-7.24 1.53-2.86 1.71-4 4.19-.95 2.48.19 5.33 1.33 2.86 5.33 4.95 3.62 1.9 8 3.05t8.57 2.29q4.39 1.14 8.39 2.66 4.19 1.53 7.42 4.2 6.29 5.14 7.62 12 1.53 6.85-.76 13.52-2.28 6.67-8 11.8-5.52 5.15-13.14 6.87-5.53 1.14-12 1.14-6.29 0-12.57-1.33-6.1-1.34-11.81-4.2-5.53-2.85-9.34-7.23-2.66-3.05-2.85-6.86 0-4 1.52-6.86 1.71-3.05 4.76-4.19 3.05-1.14 6.86 1.34 3.05 2.1 7.24 4.19 4.19 1.9 8.38 3.04 4.19 1.15 8 1.15 4 0 6.86-1.72 4.19-2.66 4.38-6.1.19-3.61-2.48-5.52zm106.86 7.43q2.28-.57 4.57-.76 2.48-.2 4.38.57 2.1.76 3.43 2.67 1.33 1.71 1.33 4.95 0 2.29-1.14 4.38-1.14 2.1-2.86 3.81-1.71 1.72-3.8 3.05-2.1 1.14-4 1.9-5.53 2.48-12.77 3.81-7.05 1.34-14.67.96-10.28-.39-19.8-4-9.34-3.81-14.67-12.39-4.95-8.38-5.9-18.66-.96-10.29.95-19.43 2.1-11.05 7.04-17.9 5.15-7.05 12.2-11.24 8.57-4.96 19.23-5.15 10.67-.19 20.38 4.2 6.48 2.85 11.62 7.8 5.15 4.76 7.81 11.62.76 1.72 1.14 4.2.58 2.47.77 5.33.19 2.66 0 5.33-.2 2.67-.96 4.76-1.14 3.43-2.85 5.33-1.72 1.9-4.38 2.86-2.67.95-6.48 1.33-3.62.2-8.76.39-4.57.19-8.57.19h-8.2q-4.18-.2-8.76-.2-4.38-.18-9.9-.38-.57 3.81.95 6.67 1.72 2.67 4.57 4.57 2.86 1.72 6.48 2.67 3.62.95 7.05 1.14 6.47.38 12.38-.95 5.9-1.52 12.19-3.43zm-8.2-36.95q-3.61-4.2-7.61-6.1-3.05-1.33-6.48-1.14-3.24 0-6.28.95-5.53 1.34-9.34 5.72-.38.38-1.33 1.9-.95 1.34-1.9 2.86-.77 1.52-1.15 2.86-.38 1.33.38 1.33h37.34q-.2-2.67-.96-4.38-.76-1.9-2.66-4zm199.63 48.57q-.2 3.24-.95 6.86-.57 3.62-3.62 5.9-2.29 1.9-5.15 2.29-2.85.38-5.71-.38-2.67-.57-5.14-1.9-2.48-1.53-4-3.63-6.48-8-12-16.38-5.34-8.57-10.86-17.14l-16-24.2q-3.24-5.13-6.86-11.42-3.62-6.48-7.43-12l-.57 72.76v1.72q0 3.04-1.14 6.1-.95 2.85-3.43 4.94-1.9 1.53-4.95 2.1-4.76.95-8-.57-3.05-1.53-4.95-4.2-1.72-2.66-2.48-6.09-.57-3.62-.2-7.04v-3.24l.39-14.86.2-27.62q.18-6.1.18-12.38V99.27q-.19-8.2 0-17.34.38-9.14.76-17.14.38-4.38 2.1-7.43.76-2.67 4-4.57 2.1-1.33 5.33-1.71 3.43-.39 5.9.19.96.38 1.91.95.95.38 1.9.95.96.76 1.72 1.52.95.77 1.71 1.72.96.95 1.72 2.1l1.52 1.9q.57 1.14 1.15 2.1.57.95 1.33 1.9l2.1 3.05 44 69.33v-12.57q0-6.1-.2-12.38 0-6.48-.19-13.34V81.36q.2-9.14.58-17.14 0-3.24 1.9-7.43.95-2.48 3.24-4 2.28-1.52 5.14-2.1 2.86-.57 5.72 0 2.85.58 4.95 2.29.57.57 1.14 1.33.57.77.95 1.72.96 2.47 1.15 4.38.57 2.67.57 4.76v48.57l.38 48.57q0 2.67.19 5.34.19 2.47 0 5.14zm40-71.62q6.29-3.05 13.14-4.38 6.86-1.33 13.53-.57 6.85.76 13.14 3.62 6.48 2.85 11.8 8 4.39 4.38 7.63 10.66 3.24 6.1 4.76 12 3.24 10.48.95 21.15-2.28 10.66-7.8 19.8-2.67 4.2-6.67 7.63-3.81 3.23-8.2 5.33-5.7 2.67-12.38 3.62-6.66 1.14-12.95.57-11.43-.57-20.19-5.71-8.57-5.15-13.9-13.15-5.15-8-6.86-18.1-1.52-10.28 1.33-20.94 3.05-11.43 8.76-18.48 5.9-7.24 13.91-11.05zm5.71 25.53q-2.85 2.66-4.38 6.66-1.52 4-1.9 8.38-.38 4.2.57 8.57 1.14 4.2 3.43 7.62 1.9 2.86 6.86 4.77 4.95 1.9 10.28 2.28 6.1.38 10.67-3.24 4.57-3.8 6.86-9.33 2.47-5.52 2.28-12-.19-6.48-3.43-11.81-2.28-3.81-6.47-5.52-4-1.9-8.58-1.9-4.38-.2-8.76 1.32-4.38 1.34-7.43 4.2zm146.67-23.43q1.53 3.62.2 8-1.15 4.38-4.39 5.71-1.71.76-4.57 1.33-2.86.39-6.29.77-3.23.38-6.47.57-3.24.19-5.53.19.2 5.71.39 11.8l.38 11.63q.19 5.71.19 11.04 0 5.15-.2 9.34v6.66q0 3.62-.57 7.05-.38 3.43-1.33 6.1-.95 2.47-2.86 3.24-5.9 2.47-10.85 1.33-4.76-.95-6.86-4-1.52-2.48-2.29-5.72-.76-3.42-1.14-6.85-.19-3.62-.19-6.86.2-3.43.2-5.9.18-8 .18-18.1.2-10.29.2-20.57h-8.77q-3.43-.2-7.05-.57-3.43-.57-6.47-1.34-3.05-.95-4.38-2.66-2.1-2.48-2.67-5.34-.38-2.85.38-5.33.95-2.67 2.86-4.57 1.9-2.1 4.38-2.67 3.43-.95 9.71-.95 6.29-.2 11.81 0-.19-1.9-.19-3.62 0-1.9-.19-3.62-.19-2.28-.19-5.71 0-3.62.38-7.05.57-3.62 1.72-6.67 1.14-3.24 3.23-4.95 2.86-2.29 5.72-2.48 3.05-.38 5.52.77 2.67 1.14 4.38 3.42 1.9 2.1 2.67 4.77.57 2.28.95 5.52.38 3.05.38 6.48.2 3.43.2 6.85v6.29h1.9q2.86 0 6.66-.2 3.81-.18 7.43.2 3.81.38 6.86 1.9 3.05 1.34 4.57 4.77zm74.48 57.9q2.28-.57 4.57-.76 2.48-.2 4.38.57 2.1.76 3.43 2.67 1.33 1.71 1.33 4.95 0 2.29-1.14 4.38-1.14 2.1-2.86 3.81-1.71 1.72-3.8 3.05-2.1 1.14-4 1.9-5.53 2.48-12.77 3.81-7.05 1.34-14.67.96-10.28-.39-19.8-4-9.34-3.81-14.67-12.39-4.95-8.38-5.9-18.66-.96-10.29.95-19.43 2.1-11.05 7.04-17.9 5.15-7.05 12.2-11.24 8.57-4.96 19.23-5.15 10.67-.19 20.38 4.2 6.48 2.85 11.62 7.8 5.15 4.76 7.81 11.62.76 1.72 1.15 4.2.57 2.47.76 5.33.19 2.66 0 5.33-.2 2.67-.96 4.76-1.14 3.43-2.85 5.33-1.72 1.9-4.38 2.86-2.67.95-6.48 1.33-3.62.2-8.76.39-4.57.19-8.57.19h-8.2q-4.18-.2-8.76-.2-4.38-.18-9.9-.38-.57 3.81.95 6.67 1.72 2.67 4.57 4.57 2.86 1.72 6.48 2.67 3.62.95 7.05 1.14 6.47.38 12.38-.95 5.9-1.52 12.19-3.43zm-8.2-36.95q-3.61-4.2-7.61-6.1-3.05-1.33-6.48-1.14-3.24 0-6.28.95-5.53 1.34-9.34 5.72-.38.38-1.33 1.9-.95 1.34-1.9 2.86-.77 1.52-1.15 2.86-.38 1.33.38 1.33h37.34q-.2-2.67-.95-4.38-.77-1.9-2.67-4zm84.39 29.52q-3.62-2.28-8.19-3.62-4.38-1.33-9.14-2.47-4.57-1.15-8.96-2.48-4.38-1.52-8-4.19-7.8-5.9-9.14-14.48-1.14-8.76 3.81-17.52 2.67-4.57 7.05-7.43 4.38-3.05 9.52-4.57 5.34-1.71 10.86-1.9 5.52-.2 10.48.57 3.23.57 6.85 1.71 3.62.95 6.67 2.67 3.24 1.71 5.71 4.38 2.67 2.48 3.81 6.28.77 2.48.2 4.77-.39 2.28-1.91 3.8-1.33 1.53-3.62 2.3-2.1.75-4.57.37-2.86-.57-5.33-1.71-2.48-1.14-4.96-2.48-2.47-1.33-5.14-2.28-2.48-.96-5.33-.96-4.38-.19-7.24 1.53-2.86 1.71-4 4.19-.95 2.48.19 5.33 1.33 2.86 5.33 4.95 3.62 1.9 8 3.05t8.57 2.29q4.39 1.14 8.39 2.66 4.19 1.53 7.42 4.2 6.29 5.14 7.62 12 1.53 6.85-.76 13.52-2.28 6.67-8 11.8-5.52 5.15-13.14 6.87-5.53 1.14-12 1.14-6.29 0-12.57-1.33-6.1-1.34-11.81-4.2-5.53-2.85-9.34-7.23-2.66-3.05-2.85-6.86 0-4 1.52-6.86 1.71-3.05 4.76-4.19 3.05-1.14 6.86 1.34 3.05 2.1 7.24 4.19 4.19 1.9 8.38 3.04 4.19 1.15 8 1.15 4 0 6.86-1.72 4.19-2.66 4.38-6.1.19-3.61-2.48-5.52z" />
</svg>
