<svg xmlns="http://www.w3.org/2000/svg" viewBox="0 0 1024 256">
  <path fill="#f9a825" fill-rule="evenodd" d="M73.62 29.52c-7.21 1.93-11.47 7.79-11.8 16.23l-.14 3.7-14.5.06c-7.08.12-10.73 5.3-10.9 11.4v155.18c.1 5.82 4.45 10.41 10.75 10.7l60.7.1 60.69.09.1-20.06.11-20.05c-.13-5.8 2.89-10.24 9.8-10.62l37.85-.29-.1-57.72-.1-57.72c-.01-6.1-4.83-10.61-10.73-10.7l-8.78-.12-8.77-.13.2-2.83c.6-8.93-4.84-16.07-13.38-17.53-4.74-.8-9.65.73-12.96 4.06-3.84 3.86-5.52 7.86-5.6 13.28l-.03 3.1-7.6-.1-7.58-.1.1-3.14c.07-1.73-.09-3.98-.34-5a16.38 16.38 0 0 0-8.5-10.63c-10.83-5.23-22.08 2.41-22.88 15.54l-.21 3.41H92.87l.2-2.68c.87-11.33-9.05-20.22-19.45-17.43m1 10.23a8.32 8.32 0 0 0-2.38 3.05c-1.08 2.15-1.11 2.36-1.09 7.39.04 8.61 1.81 14.07 5.88 18.12 2.8 2.78 4.98 3.88 7.88 3.94 3.74.1 5.68-1.6 5.68-4.97 0-2.65-1.3-4.07-4.41-4.77-2.39-.55-4.18-2.14-5.28-4.69-.76-1.76-1.62-7.21-1.24-7.83.13-.2.97-.36 1.87-.36h1.65v-2.96c0-3.51-.51-4.93-2.37-6.56-1.13-.99-1.67-1.2-3.15-1.2-1.23 0-2.18.27-3.05.84m48.6-.57c-1.22.44-2.98 2.56-3.6 4.33-.97 2.76-.85 11.5.2 15.41 1.03 3.81 2.74 7.07 4.92 9.37 3.82 4.02 9.27 5.22 12.08 2.65 1.18-1.08 1.37-1.5 1.52-3.33.17-2.03.14-2.12-1.3-3.57-1.01-1-1.82-1.48-2.5-1.48-1.43 0-3.57-1.29-4.59-2.76-1.23-1.8-2.27-5.45-2.27-7.98v-2.19H131V46.4c0-3.63-.74-5.4-2.8-6.76-1.06-.7-3.68-.94-4.99-.46m46.05.53a8.33 8.33 0 0 0-2.22 2.67c-.97 1.82-1 2.11-1 7.62 0 8.94 1.51 13.85 5.6 18.12 2.81 2.94 5.1 4.05 8.34 4.05 2.14 0 2.66-.14 3.63-.95a5.03 5.03 0 0 0 1.45-5.45c-.58-1.8-2.15-3-4.43-3.36-3.18-.5-5.67-4.58-6.13-10.04l-.23-2.74H178.08v-2.87c0-3.43-.95-5.7-2.93-7a5.75 5.75 0 0 0-5.89-.05M62.31 98.06c-3.73 1.97-3.8 6.66-.15 9.36l1.05.77 62.16.11c42.88.08 62.59-.01 63.52-.28a6.3 6.3 0 0 0 3.87-4.3 5.63 5.63 0 0 0-2.64-5.58l-1.47-.84-62.47.01c-61.76.01-62.48.02-63.87.75m1.1 33.02c-4.7 1.67-5.36 6.92-1.25 9.96l1.05.77h125.94l1.02-.76c1.9-1.4 2.56-2.65 2.54-4.74a5.34 5.34 0 0 0-2.89-4.94c-1.1-.6-5.11-.65-63.08-.72-51.57-.07-62.15 0-63.33.43m-.98 33.91a4.88 4.88 0 0 0-2.87 5.2 5.37 5.37 0 0 0 2.9 4.5c1.23.73 2.02.74 46.3.85 32.97.08 45.44 0 46.52-.31 5.03-1.43 5.86-8.13 1.3-10.42-1.21-.6-4.22-.65-46.91-.65H64.06l-1.63.83M173.26 227l16.04-.1 16.03-.11a10.96 10.96 0 0 0 10.75-10.72l.04-34.21" />
  <path fill="#808080" d="M350.89 89.89q.14 1.02.14 1.9v7.75l-.88 75.91v1.46q0 .88-.43 2.64-.15.73-.44 1.6-.3.74-.59 1.61-.73 1.76-2.05 2.64-1.17 1.17-3.8 1.6-4.1.88-7.46-.73-1.9-1.17-2.63-2.92-.3-.3-.59-.88 0-.3-.29-.88-.3-.73-.44-1.46l-.29-1.75q0-.74-.15-1.47 0-.73-.14-1.46-.3-.73-.3-1.17v-1.32q.3-.58.3-2.19l.14-11.56.15-18.42h-7.9l-29.69.14-.3 34.52v1.46q0 .88-.43 2.64-.15.73-.44 1.6-.3.74-.59 1.61-.73 1.76-2.04 2.64-1.17 1.17-3.8 1.6-4.1.88-7.47-.73-1.46-.87-2.77-2.92-.3-.59-.3-.88l-.44-.88q-.29-.73-.43-1.46l-.3-1.75q0-.74-.14-1.47l-.3-1.46q-.14-1.17 0-2.49v-2.19l.15-11.56.3-21.5q.14-4.68.14-9.65v-10.24q-.15-5.26-.15-9.36.15-4.1.44-9.21v-.59q.15-1.46.15-2.92 0-1.61.14-3.22.15-1.46.44-2.78.44-1.46 1.17-2.93.44-1.17 1.17-1.9.73-.88 1.76-1.6 2.34-1.18 4.68-1.18 1.17 0 2.05.15.87 0 1.75.15 1.76.14 3.37 1.75 1.17 1.03 1.6 2.34.74 1.9.88 3.37.15 1.02.15 1.9v7.75l-.3 24.13h2.64q1.6 0 3.66-.14 7.6 0 15.06.14 7.6.15 15.94.15h.15v-12.58q.15-6 .44-12.58v-2.92l.3-3.22q.14-1.46.43-2.78.44-1.46 1.17-2.93.3-1.17 1.02-1.9.88-.88 2.05-1.6 2.05-1.18 4.54-1.18 1.17 0 2.04.15 1.03 0 1.76.15 2.05.29 3.36 1.75 1.17.73 1.61 2.34.3.88.44 1.76.3.73.59 1.6zm78.98 31.15q1.31 2.05 1.17 4.39 0 3.36-1.17 5.85-.3.73-.88 1.9-.44 1.17-1.02 2.49-.44 1.31-1.03 2.48l-.87 1.76-.3.73-3.95 8.77q-1.9 4.25-4.24 9.07-2.34 4.68-4.53 9.22-2.05 4.39-4.1 8.63-.58 1.17-1.02 2.34-.44 1.02-1.17 2.2l-7.02 15.06q-1.9 3.8-3.66 7.46-1.6 3.65-3.66 7.31-.43.73-.87 1.32l-.59 1.46q-1.02 1.75-3.07 3.36-1.9 1.76-4.1 1.9-3.94.3-6.87-2.34-1.75-1.02-2.78-2.92-.58-1.32-.58-3.37.14-.87.14-1.75l.3-1.46q.29-.73.43-1.47.15-.73.44-1.17.44-1.17.73-1.17l10.68-23.1-1.46-3.22q-.73-1.76-1.32-3.08-1.9-4.53-4.1-9.5-2.04-5.12-4.23-10.1-2.2-5.11-4.54-9.94-2.34-4.83-4.68-9.22-.88-1.46-1.6-3.07-.74-1.75-1.18-3.36-.44-1.76-.3-3.51.16-1.76 1.33-3.51 1.17-2.2 3.07-3.07 1.9-1.03 3.95-.88 2.19 0 4.1.88 1.9.87 3.06 2.34 2.49 2.63 3.95 5.85 1.46 3.22 2.78 6.58 2.78 5.85 5.7 12.29 2.93 6.43 5.86 12.57l7.6-16.08q1.17-2.34 2.05-4.54 1.02-2.2 2.05-4.24 1.17-2.49 2.2-5.12 1.16-2.63 2.62-4.83.3-.58.59-1.02.3-.44.58-1.02 1.32-1.76 2.34-2.78.74-.59 1.17-.88.59-.44 1.32-.59 1.02-.29 1.9-.29 1.03-.14 1.9 0 1.47.44 3.51 1.32 2.2.88 3.37 3.07zm45.05 39.5q-2.78-1.76-6.3-2.79-3.36-1.02-7.01-1.9-3.51-.88-6.88-1.9-3.36-1.17-6.14-3.22-6-4.53-7.02-11.11-.88-6.73 2.92-13.46 2.05-3.51 5.42-5.7 3.36-2.35 7.3-3.52 4.1-1.31 8.35-1.46 4.24-.14 8.04.44 2.49.44 5.27 1.32 2.78.73 5.12 2.04 2.48 1.32 4.38 3.37 2.05 1.9 2.93 4.83.58 1.9.15 3.65-.3 1.76-1.47 2.93-1.02 1.17-2.78 1.75-1.6.59-3.5.3-2.2-.44-4.1-1.32-1.9-.88-3.8-1.9-1.9-1.03-3.95-1.76-1.9-.73-4.1-.73-3.36-.15-5.56 1.17-2.2 1.32-3.07 3.22-.73 1.9.15 4.1 1.02 2.19 4.1 3.8 2.77 1.46 6.14 2.34 3.36.87 6.58 1.75 3.36.88 6.43 2.05 3.22 1.17 5.7 3.22 4.83 3.95 5.86 9.21 1.17 5.27-.59 10.39-1.75 5.12-6.14 9.07-4.24 3.94-10.1 5.26-4.23.88-9.2.88-4.83 0-9.66-1.03-4.68-1.02-9.07-3.21-4.24-2.2-7.17-5.56-2.04-2.34-2.19-5.27 0-3.07 1.17-5.26 1.32-2.34 3.66-3.22 2.34-.88 5.26 1.02 2.34 1.61 5.56 3.22 3.22 1.46 6.44 2.34 3.21.88 6.14.88 3.07 0 5.26-1.32 3.22-2.04 3.37-4.68.14-2.78-1.9-4.24zm82.05 5.7q1.76-.44 3.51-.59 1.9-.15 3.37.44 1.6.58 2.63 2.05 1.02 1.31 1.02 3.8 0 1.75-.88 3.36-.87 1.61-2.19 2.93-1.32 1.32-2.92 2.34-1.61.88-3.08 1.46-4.24 1.9-9.8 2.93-5.4 1.02-11.26.73-7.9-.3-15.2-3.07-7.18-2.93-11.27-9.51-3.8-6.44-4.54-14.33-.73-7.9.74-14.92 1.6-8.49 5.4-13.75 3.96-5.41 9.37-8.63 6.58-3.8 14.77-3.95 8.2-.15 15.65 3.22 4.97 2.2 8.92 6 3.95 3.65 6 8.92.59 1.31.88 3.21.44 1.9.58 4.1.15 2.05 0 4.1-.14 2.04-.73 3.65-.88 2.63-2.2 4.1-1.3 1.46-3.36 2.2-2.04.72-4.97 1.01-2.78.15-6.73.3-3.5.14-6.58.14h-6.29q-3.22-.14-6.73-.14-3.36-.15-7.6-.3-.44 2.93.73 5.12 1.31 2.05 3.5 3.51 2.2 1.32 4.98 2.05 2.78.73 5.41.88 4.98.3 9.51-.73 4.53-1.17 9.36-2.63zm-6.29-28.38q-2.78-3.22-5.85-4.68-2.34-1.02-4.97-.88-2.49 0-4.83.73-4.24 1.03-7.17 4.4-.29.28-1.02 1.45-.73 1.03-1.46 2.2-.59 1.17-.88 2.2-.3 1.02.3 1.02h28.66q-.15-2.05-.73-3.37-.59-1.46-2.05-3.07zm153.29 37.3q-.15 2.48-.73 5.26-.44 2.78-2.78 4.54-1.76 1.46-3.95 1.75-2.2.3-4.4-.29-2.04-.44-3.94-1.46-1.9-1.17-3.07-2.78-4.97-6.14-9.22-12.58-4.1-6.58-8.33-13.16l-12.29-18.58q-2.49-3.95-5.26-8.78-2.78-4.97-5.7-9.21l-.45 55.87v1.32q0 2.34-.88 4.68-.73 2.2-2.63 3.8-1.46 1.17-3.8 1.61-3.66.73-6.14-.44-2.34-1.17-3.8-3.22-1.32-2.04-1.9-4.68-.45-2.77-.15-5.4v-2.5l.29-11.4.14-21.21q.15-4.68.15-9.5v-10.1q-.15-6.29 0-13.31.3-7.02.59-13.16.29-3.37 1.6-5.7.59-2.06 3.08-3.52 1.6-1.02 4.1-1.32 2.62-.29 4.53.15.73.3 1.46.73.73.3 1.46.73.73.59 1.32 1.17.73.59 1.31 1.32.73.73 1.32 1.6l1.17 1.47q.44.88.88 1.61.44.73 1.02 1.46l1.61 2.34 33.79 53.24v-9.65q0-4.68-.15-9.5 0-4.98-.15-10.25v-13.16q.15-7.02.44-13.16 0-2.49 1.47-5.7.73-1.9 2.48-3.08 1.76-1.17 3.95-1.6 2.2-.45 4.39 0 2.2.43 3.8 1.75.44.44.88 1.02.44.59.73 1.32.73 1.9.88 3.36.44 2.05.44 3.66v37.3l.29 37.3q0 2.04.15 4.09.14 1.9 0 3.95zm30.71-55q4.83-2.34 10.1-3.36 5.26-1.03 10.38-.44 5.26.58 10.1 2.78 4.96 2.2 9.06 6.14 3.36 3.37 5.85 8.2 2.49 4.67 3.66 9.2 2.48 8.05.73 16.24-1.76 8.2-6 15.21-2.05 3.22-5.12 5.85-2.92 2.5-6.29 4.1-4.39 2.05-9.5 2.78-5.12.88-9.95.44-8.78-.44-15.5-4.4-6.59-3.94-10.68-10.08-3.95-6.15-5.27-13.9-1.17-7.9 1.03-16.09 2.34-8.77 6.72-14.18 4.54-5.56 10.68-8.49zm4.39 19.6q-2.2 2.05-3.36 5.12-1.17 3.07-1.47 6.44-.29 3.21.44 6.58.88 3.22 2.63 5.85 1.47 2.2 5.27 3.66t7.9 1.75q4.68.3 8.19-2.49 3.51-2.92 5.26-7.16 1.9-4.24 1.76-9.22-.15-4.97-2.63-9.07-1.76-2.92-4.98-4.24-3.07-1.46-6.58-1.46-3.36-.15-6.73 1.02-3.36 1.03-5.7 3.22zm112.62-17.99q1.17 2.78.15 6.14-.88 3.37-3.36 4.4-1.32.58-3.51 1.02-2.2.29-4.83.58-2.49.3-4.97.44-2.5.15-4.25.15l.3 9.06.29 8.93q.15 4.38.15 8.48 0 3.95-.15 7.17v5.12q0 2.78-.44 5.4-.3 2.64-1.02 4.69-.73 1.9-2.2 2.48-4.53 1.9-8.33 1.03-3.66-.73-5.27-3.07-1.17-1.9-1.76-4.4-.58-2.62-.87-5.26-.15-2.78-.15-5.26.15-2.63.15-4.54.14-6.14.14-13.9.15-7.89.15-15.79h-6.73q-2.63-.14-5.41-.44-2.63-.44-4.97-1.02-2.34-.73-3.37-2.05-1.6-1.9-2.05-4.1-.29-2.19.3-4.09.73-2.05 2.2-3.5 1.45-1.62 3.36-2.06 2.63-.73 7.45-.73 4.83-.14 9.07 0-.14-1.46-.14-2.78 0-1.46-.15-2.78-.15-1.75-.15-4.38 0-2.78.3-5.42.44-2.77 1.31-5.12.88-2.48 2.49-3.8 2.2-1.75 4.39-1.9 2.34-.3 4.24.59 2.05.87 3.36 2.63 1.47 1.6 2.05 3.65.44 1.76.73 4.25.3 2.34.3 4.97.14 2.63.14 5.27v4.82h1.46q2.2 0 5.12-.14 2.93-.15 5.7.14 2.93.3 5.27 1.46 2.34 1.03 3.51 3.66zm57.2 44.47q1.75-.44 3.5-.59 1.9-.15 3.37.44 1.6.58 2.63 2.05 1.02 1.31 1.02 3.8 0 1.75-.87 3.36-.88 1.61-2.2 2.93-1.31 1.32-2.92 2.34-1.61.88-3.07 1.46-4.25 1.9-9.8 2.93-5.42 1.02-11.27.73-7.9-.3-15.2-3.07-7.18-2.93-11.27-9.51-3.8-6.44-4.53-14.33-.74-7.9.73-14.92 1.6-8.49 5.4-13.75 3.96-5.41 9.37-8.63 6.58-3.8 14.77-3.95 8.2-.15 15.65 3.22 4.97 2.2 8.92 6 3.95 3.65 6 8.92.59 1.31.88 3.21.44 1.9.58 4.1.15 2.05 0 4.1-.14 2.04-.73 3.65-.88 2.63-2.2 4.1-1.3 1.46-3.36 2.2-2.04.72-4.97 1.01-2.78.15-6.73.3-3.5.14-6.58.14h-6.29q-3.22-.14-6.73-.14-3.36-.15-7.6-.3-.44 2.93.73 5.12 1.32 2.05 3.51 3.51 2.2 1.32 4.97 2.05 2.78.73 5.41.88 4.98.3 9.51-.73 4.54-1.17 9.36-2.63zm-6.3-28.38q-2.78-3.22-5.85-4.68-2.34-1.02-4.97-.88-2.49 0-4.83.73-4.24 1.03-7.16 4.4-.3.28-1.03 1.45-.73 1.03-1.46 2.2-.59 1.17-.88 2.2-.3 1.02.3 1.02h28.66q-.14-2.05-.73-3.37-.58-1.46-2.05-3.07zm64.8 22.67q-2.78-1.75-6.3-2.78-3.36-1.02-7.01-1.9-3.51-.88-6.88-1.9-3.36-1.17-6.14-3.22-6-4.53-7.02-11.11-.88-6.73 2.93-13.46 2.04-3.51 5.4-5.7 3.37-2.35 7.32-3.52 4.1-1.31 8.34-1.46 4.24-.14 8.04.44 2.49.44 5.27 1.32 2.78.73 5.12 2.04 2.48 1.32 4.38 3.37 2.05 1.9 2.93 4.83.58 1.9.15 3.65-.3 1.76-1.47 2.93-1.02 1.17-2.78 1.75-1.6.59-3.5.3-2.2-.44-4.1-1.32-1.9-.88-3.8-1.9-1.9-1.03-3.95-1.76-1.9-.73-4.1-.73-3.36-.15-5.56 1.17-2.2 1.32-3.07 3.22-.73 1.9.15 4.1 1.02 2.19 4.1 3.8 2.77 1.46 6.14 2.34 3.36.87 6.58 1.75 3.36.88 6.43 2.05 3.22 1.17 5.7 3.22 4.83 3.95 5.86 9.21 1.17 5.27-.59 10.39-1.75 5.12-6.14 9.07-4.24 3.94-10.1 5.26-4.23.88-9.2.88-4.83 0-9.66-1.03-4.68-1.02-9.07-3.21-4.24-2.2-7.17-5.56-2.04-2.34-2.19-5.27 0-3.07 1.17-5.26 1.32-2.34 3.66-3.22 2.34-.88 5.26 1.02 2.34 1.61 5.56 3.22 3.22 1.46 6.44 2.34 3.21.88 6.14.88 3.07 0 5.27-1.32 3.21-2.04 3.36-4.68.15-2.78-1.9-4.24z" />
</svg>
