<svg xmlns="http://www.w3.org/2000/svg" width="256" height="256">
  <path fill="#fcfbfb" fill-rule="evenodd" d="M69.493 18.573c-8.02 2.152-12.75 8.66-13.11 18.042l-.157 4.105-16.118.07c-7.861.131-11.916 5.892-12.108 12.656v172.429c.103 6.466 4.943 11.569 11.946 11.888l67.435.107 67.435.107.12-22.284.12-22.284c-.147-6.438 3.21-11.37 10.893-11.792l42.051-.328-.11-64.136-.109-64.135c-.019-6.767-5.368-11.787-11.925-11.887l-9.752-.135-9.752-.135.216-3.15c.68-9.926-5.369-17.853-14.86-19.473-5.269-.9-10.717.807-14.398 4.509-4.262 4.287-6.136 8.736-6.215 14.755l-.045 3.44-8.431-.112-8.431-.11.12-3.491c.068-1.92-.105-4.414-.383-5.542-1.25-5.079-4.869-9.606-9.444-11.815-12.035-5.813-24.54 2.673-25.428 17.256l-.232 3.797h-17.94l.226-2.976c.953-12.593-10.069-22.473-21.614-19.376m1.099 11.371c-.864.57-1.873 1.866-2.636 3.387-1.202 2.395-1.235 2.62-1.21 8.21.045 9.575 2.013 15.641 6.536 20.14 3.106 3.089 5.53 4.303 8.745 4.38 4.165.098 6.32-1.786 6.32-5.525 0-2.947-1.455-4.52-4.907-5.306-2.65-.604-4.645-2.375-5.862-5.204-.844-1.963-1.8-8.019-1.374-8.705.135-.218 1.068-.396 2.075-.396h1.829v-3.297c0-3.899-.57-5.477-2.63-7.28-1.262-1.103-1.853-1.327-3.502-1.327-1.369 0-2.42.286-3.384.923m54.003-.635c-1.359.49-3.316 2.842-4.007 4.812-1.073 3.064-.947 12.782.223 17.126 1.14 4.234 3.039 7.848 5.465 10.405 4.246 4.474 10.296 5.801 13.424 2.945 1.31-1.197 1.523-1.661 1.692-3.692.189-2.265.152-2.365-1.456-3.968-1.12-1.116-2.012-1.644-2.775-1.644-1.585 0-3.965-1.438-5.09-3.074-1.374-1.998-2.533-6.056-2.533-8.867v-2.427h3.708l-.004-3.592c-.004-4.028-.823-6.007-3.112-7.51-1.17-.77-4.082-1.04-5.537-.514m51.162.593c-.748.476-1.86 1.812-2.472 2.969-1.07 2.022-1.113 2.344-1.113 8.465 0 9.933 1.687 15.386 6.226 20.128 3.126 3.267 5.67 4.502 9.27 4.502 2.376 0 2.951-.15 4.03-1.056 1.703-1.428 2.334-3.797 1.612-6.053-.642-2.007-2.384-3.326-4.925-3.731-3.53-.563-6.293-5.09-6.807-11.16l-.258-3.04h4.24v-3.198c0-3.805-1.054-6.323-3.254-7.78-1.838-1.218-4.683-1.238-6.55-.047M56.919 94.738c-4.144 2.18-4.223 7.392-.158 10.393l1.163.86 69.07.12c47.642.084 69.536-.014 70.575-.313 1.886-.543 3.926-2.811 4.296-4.775.43-2.286-.872-5.044-2.93-6.205l-1.637-.924-69.408.01c-68.62.012-69.426.021-70.97.834m1.225 36.68c-5.223 1.864-5.952 7.695-1.384 11.069l1.163.859h139.932l1.138-.847c2.103-1.565 2.837-2.939 2.815-5.266-.023-2.485-1.112-4.35-3.204-5.49-1.223-.667-5.684-.718-70.097-.8-57.298-.072-69.054.006-70.363.475m-1.09 37.687c-2.375 1.213-3.422 3.11-3.188 5.777.199 2.263 1.196 3.813 3.216 4.999 1.374.807 2.253.823 51.447.943 36.639.09 50.49-.004 51.696-.347 5.581-1.59 6.503-9.038 1.433-11.577-1.341-.672-4.686-.718-52.115-.718H58.86l-1.808.923M180.203 238l17.815-.12 17.816-.118c6.65-.15 11.845-5.514 11.946-11.905l.036-38.014" style="fill:#f9a825;fill-opacity:1;stroke-width:.411212"/>
</svg>
