<svg xmlns="http://www.w3.org/2000/svg" viewBox="0 0 256 256">
  <path fill="#f9a825" fill-rule="evenodd" d="M69.5 18.57c-8.03 2.16-12.76 8.66-13.12 18.04l-.15 4.11-16.12.07c-7.86.13-11.92 5.9-12.11 12.66v172.43c.1 6.46 4.94 11.56 11.95 11.88l67.43.11 67.44.1.12-22.28.12-22.28c-.15-6.44 3.2-11.37 10.89-11.8l42.05-.32-.11-64.14-.1-64.13c-.03-6.77-5.38-11.79-11.93-11.89L206.1 41l-9.75-.14.22-3.15c.68-9.92-5.37-17.85-14.86-19.47a16.5 16.5 0 0 0-14.4 4.5c-4.26 4.3-6.14 8.74-6.21 14.76l-.05 3.44-8.43-.11-8.43-.11.12-3.5c.07-1.91-.1-4.4-.38-5.53a18.2 18.2 0 0 0-9.45-11.82c-12.03-5.81-24.54 2.67-25.43 17.26l-.23 3.8H90.88l.23-2.98c.95-12.6-10.07-22.47-21.62-19.38m1.1 11.37c-.86.57-1.87 1.87-2.63 3.4-1.2 2.39-1.24 2.61-1.21 8.2.04 9.58 2 15.64 6.53 20.14 3.1 3.09 5.53 4.3 8.75 4.38 4.16.1 6.32-1.78 6.32-5.52 0-2.95-1.46-4.52-4.91-5.31-2.65-.6-4.64-2.37-5.86-5.2-.85-1.97-1.8-8.02-1.38-8.7.14-.23 1.07-.4 2.08-.4h1.83v-3.3c0-3.9-.57-5.48-2.63-7.28-1.26-1.1-1.85-1.33-3.5-1.33-1.37 0-2.42.29-3.39.92m54-.63c-1.35.49-3.31 2.84-4 4.81-1.08 3.07-.95 12.78.22 17.13 1.14 4.23 3.04 7.85 5.47 10.4 4.24 4.48 10.3 5.8 13.42 2.95 1.31-1.2 1.52-1.66 1.7-3.7.18-2.26.14-2.36-1.46-3.96-1.12-1.12-2.02-1.65-2.78-1.65-1.58 0-3.96-1.43-5.09-3.07-1.37-2-2.53-6.06-2.53-8.87v-2.42h3.71v-3.6c-.01-4.03-.83-6-3.12-7.5-1.17-.78-4.08-1.05-5.54-.52m51.16.6a9.26 9.26 0 0 0-2.47 2.96c-1.07 2.02-1.11 2.34-1.11 8.47 0 9.93 1.69 15.38 6.23 20.12 3.12 3.27 5.67 4.5 9.27 4.5 2.37 0 2.95-.14 4.03-1.05a5.6 5.6 0 0 0 1.6-6.05c-.63-2.01-2.38-3.33-4.92-3.73-3.53-.57-6.29-5.1-6.8-11.16l-.26-3.04h4.24v-3.2c0-3.8-1.06-6.33-3.26-7.78a6.39 6.39 0 0 0-6.55-.05M56.92 94.74c-4.15 2.18-4.22 7.39-.16 10.4l1.16.85 69.07.12c47.64.08 69.54-.01 70.58-.31 1.88-.54 3.92-2.81 4.3-4.78a6.26 6.26 0 0 0-2.94-6.2l-1.63-.93-69.41.01c-68.62.02-69.43.03-70.97.84m1.22 36.68c-5.22 1.86-5.95 7.7-1.38 11.07l1.16.86h139.93l1.14-.85c2.1-1.57 2.84-2.94 2.82-5.27a5.93 5.93 0 0 0-3.2-5.49c-1.23-.66-5.69-.71-70.1-.8-57.3-.07-69.06 0-70.37.48m-1.09 37.68a5.42 5.42 0 0 0-3.18 5.78 5.96 5.96 0 0 0 3.21 5c1.38.8 2.26.82 51.45.94 36.64.1 50.49 0 51.7-.34 5.58-1.6 6.5-9.04 1.43-11.58-1.34-.67-4.69-.72-52.12-.72H58.86l-1.8.92M180.2 238l17.82-.12 17.81-.12a12.18 12.18 0 0 0 11.95-11.9l.04-38.02" />
</svg>
